# xmcd CD database file
# Copyright 1993-1996 (C) Ti Kan
#
# Track frame offsets:
#    200
#    15017
#    30575
#    44227
#    56797
#    70015
#    87217
#    100627
#    117815
#    130207
#    145417
#    158912
#    170542
#    183667
#    199317
#    210355
#    224575
#    239672
#    255375
#    267580
#
# Disc length: 3730 seconds
#
# Revision: 0
# Processed by: cddbd v1.4b41PL1 Copyright (c) Steve Scherf et al.
# Submitted via: MyCDplayer 2.3.9a  (wjohn@fix.net)
#
DISCID=270e9014
DTITLE=Josh White - 
DTITLE=Josh White Sings the Blues and Sings (Volumes 1 and 2)
DYEAR=1900
DGENRE=
TTITLE0=Mean Mistreating Woman
TTITLE1=Fare Thee Well
TTITLE2=Miss Otis Regrets
TTITLE3=When I Lay Down To Die, Do Die
TTITLE4=Jim Crow Train
TTITLE5=Baby Baby
TTITLE6=Number 12 Train
TTITLE7=Dupree
TTITLE8=I Got A Head Like A Rock/Cotton Eyed Joe
TTITLE9=Strange Fruit
TTITLE10=One Meat Ball
TTITLE11=Motherless Children
TTITLE12=St. James Infirmary
TTITLE13=Careless Love
TTITLE14=Evil Hearted Man
TTITLE15=Outskirts Of Town
TTITLE16=Well, Well, Well
TTITLE17=T.B. Blues
TTITLE18=Joshua Fit The Battle Of Jehrico
TTITLE19=Hard Times
EXTD=
EXTT0=
EXTT1=
EXTT2=
EXTT3=
EXTT4=
EXTT5=
EXTT6=
EXTT7=
EXTT8=
EXTT9=
EXTT10=
EXTT11=
EXTT12=
EXTT13=
EXTT14=
EXTT15=
EXTT16=
EXTT17=
EXTT18=
EXTT19=
PLAYORDER=
